<svg width="42" height="44" viewBox="0 0 42 44" fill="none" xmlns="http://www.w3.org/2000/svg">
<path d="M9.11548 23.3463H28.663L20.123 32.1102C19.4405 32.8106 19.4405 33.9599 20.123 34.6603C20.8055 35.3607 21.908 35.3607 22.5905 34.6603L34.123 22.8255C34.8055 22.1251 34.8055 20.9937 34.123 20.2933L22.608 8.44055C22.281 8.10427 21.8371 7.91528 21.3742 7.91528C20.9113 7.91528 20.4674 8.10427 20.1405 8.44055C19.458 9.14094 19.458 10.2723 20.1405 10.9727L28.663 19.7546H9.11548C8.15298 19.7546 7.36548 20.5627 7.36548 21.5504C7.36548 22.5382 8.15298 23.3463 9.11548 23.3463Z" fill="#0BC8FF"/>
</svg>
