<svg width="42" height="44" viewBox="0 0 42 44" fill="none" xmlns="http://www.w3.org/2000/svg">
<path d="M32.8849 19.7636H13.3374L21.8774 10.9997C22.5599 10.2993 22.5599 9.14998 21.8774 8.44958C21.5504 8.1133 21.1065 7.92432 20.6436 7.92432C20.1807 7.92432 19.7368 8.1133 19.4099 8.44958L7.87735 20.2844C7.19485 20.9848 7.19485 22.1162 7.87735 22.8166L19.4099 34.6514C20.0924 35.3518 21.1949 35.3518 21.8774 34.6514C22.5599 33.951 22.5599 32.8196 21.8774 32.1192L13.3374 23.3553H32.8849C33.8474 23.3553 34.6349 22.5472 34.6349 21.5595C34.6349 20.5717 33.8474 19.7636 32.8849 19.7636Z" fill="#0BC8FF"/>
</svg>
